HIERARCHY
ROOT Hips
{
	OFFSET 0.000000 0.000000 0.000000
	CHANNELS 6 Xposition Yposition Zposition Xrotation Yrotation Zrotation
	JOINT LeftUpLeg_virtual
	{
		OFFSET 0.000000 0.000000 0.000000
		CHANNELS 3 Xrotation Yrotation Zrotation
		JOINT LeftUpLeg
		{
			OFFSET 13.026900 -6.336304 -1.092800
			CHANNELS 3 Xrotation Yrotation Zrotation
			JOINT LeftLeg
			{
				OFFSET 0.524474 -46.096886 9.782700
				CHANNELS 3 Xrotation Yrotation Zrotation
				JOINT LeftFoot
				{
					OFFSET -0.524474 -53.427422 -12.948200
					CHANNELS 3 Xrotation Yrotation Zrotation
					JOINT LeftToeBase
					{
						OFFSET 0.192200 -14.009700 16.364100
						CHANNELS 3 Xrotation Yrotation Zrotation
						JOINT LeftToe_End
						{
							OFFSET -1.784700 -0.561700 9.474800
							CHANNELS 3 Xrotation Yrotation Zrotation
							End Site
							{
								OFFSET 0 0 0
							}
						}
					}
				}
			}
		}
	}
	JOINT RightUpLeg_virtual
	{
		OFFSET 0.000000 0.000000 0.000000
		CHANNELS 3 Xrotation Yrotation Zrotation
		JOINT RightUpLeg
		{
			OFFSET -12.883000 -6.336304 -1.092800
			CHANNELS 3 Xrotation Yrotation Zrotation
			JOINT RightLeg
			{
				OFFSET -0.524587 -46.096825 9.782800
				CHANNELS 3 Xrotation Yrotation Zrotation
				JOINT RightFoot
				{
					OFFSET 0.524587 -53.427383 -12.948300
					CHANNELS 3 Xrotation Yrotation Zrotation
					JOINT RightToeBase
					{
						OFFSET -0.192200 -14.009700 16.364100
						CHANNELS 3 Xrotation Yrotation Zrotation
						JOINT RightToe_End
						{
							OFFSET 1.784700 -0.561700 9.474800
							CHANNELS 3 Xrotation Yrotation Zrotation
							End Site
							{
								OFFSET 0 0 0
							}
						}
					}
				}
			}
		}
	}
	JOINT Spine_virtual
	{
		OFFSET 0.000000 0.000000 0.000000
		CHANNELS 3 Xrotation Yrotation Zrotation
		JOINT Spine
		{
			OFFSET 0.072000 7.257294 -0.789700
			CHANNELS 3 Xrotation Yrotation Zrotation
			JOINT Spine1
			{
				OFFSET 0.000000 12.508769 -0.658067
				CHANNELS 3 Xrotation Yrotation Zrotation
				JOINT Spine1_split
				{
					OFFSET 0.000000 12.508769 -0.658067
					CHANNELS 3 Xrotation Yrotation Zrotation
					JOINT Spine2
					{
						OFFSET 0.000000 12.508769 -0.658067
						CHANNELS 3 Xrotation Yrotation Zrotation
						JOINT Neck_virtual
						{
							OFFSET 0.000000 0.000000 0.000000
							CHANNELS 3 Xrotation Yrotation Zrotation
							JOINT Neck
							{
								OFFSET 0.000000 14.033295 7.520400
								CHANNELS 3 Xrotation Yrotation Zrotation
								JOINT Head
								{
									OFFSET 0.000000 8.198502 5.703100
									CHANNELS 3 Xrotation Yrotation Zrotation
									JOINT HeadTop_End
									{
										OFFSET 0.000000 17.760803 13.332701
										CHANNELS 3 Xrotation Yrotation Zrotation
										End Site
										{
											OFFSET 0 0 0
										}
									}
								}
							}
						}
						JOINT LeftShoulder_virtual
						{
							OFFSET 0.000000 0.000000 0.000000
							CHANNELS 3 Xrotation Yrotation Zrotation
							JOINT LeftShoulder
							{
								OFFSET 6.292450 5.785301 -0.669000
								CHANNELS 3 Xrotation Yrotation Zrotation
								JOINT LeftShoulder_split
								{
									OFFSET 6.292450 5.785301 -0.669000
									CHANNELS 3 Xrotation Yrotation Zrotation
									JOINT LeftArm
									{
										OFFSET 13.907140 -6.093903 1.965100
										CHANNELS 3 Xrotation Yrotation Zrotation
										JOINT LeftForeArm
										{
											OFFSET 34.140198 0.000000 0.000000
											CHANNELS 3 Xrotation Yrotation Zrotation
											JOINT LeftHand
											{
												OFFSET 40.960209 0.000000 0.000000
												CHANNELS 3 Xrotation Yrotation Zrotation
												End Site
												{
													OFFSET 0 0 0
												}
											}
										}
									}
								}
							}
						}
						JOINT RightShoulder_virtual
						{
							OFFSET 0.000000 0.000000 0.000000
							CHANNELS 3 Xrotation Yrotation Zrotation
							JOINT RightShoulder
							{
								OFFSET -6.292450 5.785301 -0.669000
								CHANNELS 3 Xrotation Yrotation Zrotation
								JOINT RightShoulder_split
								{
									OFFSET -6.292450 5.785301 -0.669000
									CHANNELS 3 Xrotation Yrotation Zrotation
									JOINT RightArm
									{
										OFFSET -13.907140 -6.093903 1.965100
										CHANNELS 3 Xrotation Yrotation Zrotation
										JOINT RightForeArm
										{
											OFFSET -34.140198 0.000000 0.000000
											CHANNELS 3 Xrotation Yrotation Zrotation
											JOINT RightHand
											{
												OFFSET -40.960209 0.000000 0.000000
												CHANNELS 3 Xrotation Yrotation Zrotation
												End Site
												{
													OFFSET 0 0 0
												}
											}
										}
									}
								}
							}
						}
					}
				}
			}
		}
	}
}
MOTION
Frames: 11
Frame Time: 0.03333333
-0.262772 93.863022 -5.112131 0.000000 0.000000 0.000000 8.354619 -0.370336 -2.068216 13.603701 6.371548 10.489190 30.988189 -4.440246 9.095707 -16.822811 -1.608945 -8.343048 -23.328108 -0.784051 -2.827812 0.000000 0.000000 0.000000 9.804422 2.726079 -2.695781 -66.982545 0.559538 -2.718379 64.295446 -6.920878 0.228186 3.504800 2.413165 -7.976185 -2.120156 0.615075 -0.304994 0.000000 0.000000 0.000000 8.552099 -0.191150 -2.298274 1.230731 -3.942677 2.832881 1.781905 -2.652248 2.555474 0.789724 -1.780705 -0.059366 0.000000 0.000000 0.000000 2.827659 -2.597031 2.706415 -3.710893 1.287816 -1.417929 -17.078685 -5.583810 7.531423 0.000000 0.000000 0.000000 3.243746 -2.802248 1.903771 -1.259180 2.625333 -3.310166 -2.867028 2.936066 -2.405659 -14.430977 5.519299 -58.252791 -178.960956 -73.656658 -177.259392 0.000000 0.000000 0.000000 4.505963 -2.188935 2.673248 0.911137 -8.543105 16.513157 -3.111769 4.497170 1.584243 -23.033182 8.023013 53.836323 -171.189047 56.618406 171.513905 0.000000 0.000000 0.000000 
-1.259864 96.050369 -5.173624 0.000000 0.000000 0.000000 8.535400 0.149418 -1.936209 11.778828 5.299403 10.048659 32.570693 -3.446727 8.872961 -10.698481 -1.247032 -8.554895 -21.192463 -0.163244 -3.864751 0.000000 0.000000 0.000000 9.500304 2.245723 -2.593368 -66.782721 -0.173155 -4.005377 63.800742 -6.597635 0.454549 4.320703 2.721523 -7.765059 -1.722348 0.688285 -0.178562 0.000000 0.000000 0.000000 8.688778 0.132657 -2.302069 1.227337 -3.776544 3.169877 1.848457 -2.617782 2.345945 0.416339 -0.730299 -0.723103 0.000000 0.000000 0.000000 2.824983 -2.516832 2.422168 -3.662557 1.419310 -1.769108 -16.298377 -5.494966 7.717269 0.000000 0.000000 0.000000 3.426177 -2.738172 1.768721 -1.156031 1.478883 -2.231065 -2.861276 1.651153 -1.331108 -18.776704 4.006107 -57.883777 -178.255711 -73.986986 -176.526526 0.000000 0.000000 0.000000 4.739696 -2.088382 2.424494 0.844520 -7.951766 15.983700 -4.431943 5.115927 0.506489 -27.170392 9.654995 53.575792 -172.567161 54.973587 172.573650 0.000000 0.000000 0.000000 
-1.790906 100.351387 -4.912077 0.000000 0.000000 0.000000 8.232466 1.436239 -2.186703 6.901046 5.335150 9.843031 35.350880 -1.566850 7.723225 -0.270605 -0.772274 -6.685389 -13.333936 0.090465 -4.861554 0.000000 0.000000 0.000000 8.947401 1.832840 -2.743590 -64.343312 -0.271361 -4.700816 58.630330 -5.708673 0.173727 6.852622 3.065217 -7.097613 -2.302725 0.659529 0.027359 0.000000 0.000000 0.000000 8.546396 0.698774 -2.169011 1.900654 -3.032867 3.711488 1.925032 -2.400619 1.796512 0.330310 0.361228 -0.895519 0.000000 0.000000 0.000000 2.747280 -2.249982 1.750119 -3.331566 1.500777 -2.171445 -14.712656 -5.704173 8.065871 0.000000 0.000000 0.000000 3.591372 -2.438953 1.382794 -0.974263 -0.536461 -1.042282 -2.270430 1.072448 -0.826122 -25.812103 0.351999 -56.835445 -176.542987 -76.133428 -174.940378 0.000000 0.000000 0.000000 4.875559 -1.856267 1.844793 0.887192 -7.279255 14.658419 -4.637021 4.163472 0.175113 -35.089144 12.862330 53.364490 -172.925363 56.060267 172.832473 0.000000 0.000000 0.000000 
-1.576905 105.738029 -4.310293 0.000000 0.000000 0.000000 7.574854 2.728559 -2.726300 0.032365 5.882616 9.723805 39.581216 0.682266 6.248369 11.067145 0.195669 -3.721415 -2.780663 -0.077166 -5.643284 0.000000 0.000000 0.000000 8.110256 1.940648 -3.131725 -59.368271 0.096059 -4.585168 49.966662 -4.652688 -0.147262 10.683547 3.292381 -6.296389 -4.772721 0.503263 0.246802 0.000000 0.000000 0.000000 7.982526 1.450697 -1.907918 3.091974 -1.957058 4.210169 2.112500 -2.060667 1.147324 0.221671 1.233948 -0.439090 0.000000 0.000000 0.000000 2.740836 -1.832859 1.024187 -2.789798 1.584168 -2.599820 -12.791112 -6.084352 8.521696 0.000000 0.000000 0.000000 3.764926 -1.981540 0.980769 -0.721495 -3.091515 0.189662 -1.771804 1.410853 -0.880890 -34.495047 -4.696091 -56.138605 -173.246655 -80.240632 -171.928921 0.000000 0.000000 0.000000 4.953762 -1.542213 1.179572 0.940044 -6.743360 12.520835 -4.007178 2.293012 0.099195 -45.082448 16.568791 53.920952 -172.443316 59.840018 172.535742 0.000000 0.000000 0.000000 
-1.180056 111.197746 -2.992571 0.000000 0.000000 0.000000 6.456773 3.700629 -3.098442 -8.061837 6.385211 9.314048 45.638310 2.772606 4.930389 19.552771 0.894825 -0.636981 5.346369 -0.403193 -5.612898 0.000000 0.000000 0.000000 6.857905 2.752456 -3.516334 -52.598488 0.396639 -3.947220 39.865980 -3.764822 -0.215933 14.833402 3.552057 -5.240410 -8.898041 0.237783 0.363211 0.000000 0.000000 0.000000 6.987695 2.467285 -1.631852 4.667770 -0.869661 4.386771 2.491040 -1.678491 0.659928 0.451734 1.552758 0.191339 0.000000 0.000000 0.000000 2.917276 -1.368056 0.540224 -2.078211 1.644963 -3.009856 -10.876252 -6.489200 9.038161 0.000000 0.000000 0.000000 4.028281 -1.476978 0.802944 -0.459091 -5.659252 1.680041 -1.690897 2.015981 -1.358960 -44.288931 -10.245115 -56.474405 -162.616231 -85.734099 -161.616865 0.000000 0.000000 0.000000 4.995203 -1.234682 0.722935 0.929066 -6.439429 9.391852 -3.148857 0.621229 -0.207361 -55.747499 19.577658 55.436663 -170.931481 66.130916 171.461913 0.000000 0.000000 0.000000 
-0.981089 115.536781 -1.039999 0.000000 0.000000 0.000000 4.710204 4.522839 -3.020451 -16.441416 6.439164 8.036844 54.819884 4.465792 4.180623 23.757864 0.470272 2.333641 8.451148 -0.724806 -4.555326 0.000000 0.000000 0.000000 5.057682 3.868500 -3.649265 -45.300892 0.310769 -3.015463 30.751434 -3.129757 0.015201 17.769480 4.023026 -3.881048 -13.076755 -0.114580 0.370871 0.000000 0.000000 0.000000 5.363497 3.512248 -1.395534 6.468550 -0.091914 4.031583 3.038527 -1.348214 0.507758 0.841628 1.714507 0.610085 0.000000 0.000000 0.000000 3.354549 -0.974855 0.480893 -1.237510 1.664589 -3.352984 -9.113737 -6.725420 9.610996 0.000000 0.000000 0.000000 4.370156 -1.030057 0.994092 -0.234876 -7.653691 3.684606 -1.765244 2.502245 -1.772689 -54.402645 -14.714429 -58.033010 -30.204551 -87.911187 -29.508480 0.000000 0.000000 0.000000 5.113296 -1.019573 0.639674 0.842372 -6.421974 5.113032 -2.717663 -0.685908 -0.895003 -65.683177 21.190976 57.796562 -167.786821 74.305464 168.996078 0.000000 0.000000 0.000000 
-0.975156 118.073212 1.002489 0.000000 0.000000 0.000000 2.596696 5.150146 -2.479738 -24.880161 5.771266 5.397262 67.521283 5.811758 4.025654 24.521772 -0.732353 4.804090 8.489489 -0.964357 -3.105031 0.000000 0.000000 0.000000 2.837523 4.919014 -3.185224 -38.736414 -0.230788 -2.080819 24.470319 -2.597929 0.355727 18.190220 4.896695 -2.450617 -15.749223 -0.459857 0.223663 0.000000 0.000000 0.000000 3.391133 4.360320 -1.191292 8.312470 0.242740 3.190733 3.682630 -1.124327 0.703902 0.886229 1.968949 0.584578 0.000000 0.000000 0.000000 3.923800 -0.710135 0.850180 -0.265570 1.595646 -3.595398 -7.478486 -6.777312 10.230302 0.000000 0.000000 0.000000 4.808837 -0.726526 1.512129 0.055018 -8.693041 6.284324 -1.926832 2.625944 -1.739265 -64.069954 -17.043303 -60.215822 -4.940602 -82.935449 -4.478368 0.000000 0.000000 0.000000 5.278628 -0.931925 0.879910 0.661915 -6.554959 -0.172725 -2.691436 -1.510345 -1.927090 -74.693043 20.997094 60.571183 -158.278747 83.244945 160.160764 0.000000 0.000000 0.000000 
-1.360506 118.325943 2.781641 0.000000 0.000000 0.000000 0.214065 5.377600 -1.590198 -34.464407 4.967267 2.185204 81.468905 7.239662 3.903880 24.069663 -1.524397 6.324479 7.668573 -0.953657 -1.725883 0.000000 0.000000 0.000000 0.391999 5.220156 -2.253628 -33.977169 -1.288419 -1.263688 21.907521 -2.162720 0.670812 15.580131 5.945024 -1.158749 -16.029674 -0.690061 0.002147 0.000000 0.000000 0.000000 1.136777 4.928565 -1.031847 10.183405 0.130770 2.039025 4.271378 -1.015331 1.109620 0.727390 2.159248 0.123789 0.000000 0.000000 0.000000 4.378492 -0.613186 1.424250 0.946321 1.434741 -3.644965 -5.888552 -6.598478 10.878277 0.000000 0.000000 0.000000 5.209120 -0.604318 2.133948 0.383029 -8.777255 9.486173 -1.967123 2.473138 -1.114636 -72.383749 -17.124186 -62.224533 0.024101 -79.508402 0.293650 0.000000 0.000000 0.000000 5.458246 -0.942156 1.289230 0.416111 -6.696720 -6.209836 -2.986836 -1.599720 -2.410861 -82.338019 19.018733 63.301251 -39.011647 87.653730 41.371067 0.000000 0.000000 0.000000 
-1.842492 116.426819 4.296347 0.000000 0.000000 0.000000 -2.210282 5.125034 -0.616138 -45.315143 4.997489 -0.202851 93.840775 8.766935 3.194700 25.271900 -0.954020 6.487602 8.036308 -0.678096 -0.798179 0.000000 0.000000 0.000000 -1.959400 4.586922 -1.246536 -31.269654 -2.552143 -0.531348 23.461299 -1.842363 0.831079 10.071616 6.594748 -0.425827 -13.860255 -0.782268 -0.132812 0.000000 0.000000 0.000000 -1.359934 5.283395 -0.804905 12.037097 -0.237662 0.857585 4.648946 -1.004236 1.481138 0.397168 2.188198 -0.179802 0.000000 0.000000 0.000000 4.551281 -0.660235 1.913539 2.427629 1.190129 -3.441254 -4.415662 -6.161991 11.483571 0.000000 0.000000 0.000000 5.393118 -0.631109 2.574973 0.635000 -8.147566 12.846531 -2.018077 2.022946 -0.197079 -78.572331 -15.440717 -63.465250 3.289931 -78.573970 3.378932 0.000000 0.000000 0.000000 5.568264 -0.998640 1.623491 0.167894 -6.546257 -12.273006 -3.210783 -1.498539 -2.103298 -88.370832 15.619003 65.584706 -4.908838 82.907432 7.437177 0.000000 0.000000 0.000000 
-2.082562 113.131058 5.243616 0.000000 0.000000 0.000000 -4.538610 4.081483 0.160287 -56.791677 5.985361 -1.014077 103.033711 9.927044 2.037343 29.350129 0.698397 5.294382 10.939453 -0.204445 -0.694723 0.000000 0.000000 0.000000 -3.937919 3.319068 -0.370286 -30.178450 -3.653843 0.011596 28.327439 -1.767920 0.697991 2.804692 6.538470 -0.664881 -10.443806 -0.756588 -0.126055 0.000000 0.000000 0.000000 -3.814066 5.221797 -0.515309 13.769579 -0.591902 -0.124973 4.739464 -1.048213 1.577812 0.112039 1.686988 -0.065064 0.000000 0.000000 0.000000 4.385816 -0.777482 2.041544 4.098144 0.949843 -3.025628 -3.303857 -5.627716 11.932468 0.000000 0.000000 0.000000 5.303833 -0.760945 2.607192 0.797965 -7.242650 15.719564 -2.092018 1.394466 0.388192 -82.960550 -13.214154 -64.051520 6.719371 -79.513313 6.614248 0.000000 0.000000 0.000000 5.422461 -1.083176 1.665426 -0.004794 -5.780723 -17.649789 -3.110169 -1.454829 -0.817292 -92.960930 11.536355 66.754615 -1.540900 81.174742 3.868213 0.000000 0.000000 0.000000 
-2.015976 109.364395 5.998592 0.000000 0.000000 0.000000 -6.646265 2.211364 0.780185 -67.180101 7.346655 -0.042100 108.816272 10.412626 0.967340 34.852358 2.266132 3.498789 14.180361 0.283473 -0.990691 0.000000 0.000000 0.000000 -5.429916 1.885249 0.251689 -30.206498 -4.394478 0.228812 35.410617 -1.866540 0.395767 -4.576741 6.016067 -1.990522 -6.435389 -0.665856 0.093408 0.000000 0.000000 0.000000 -5.977834 4.609580 -0.075434 15.267114 -0.716426 -0.906052 4.562044 -1.109709 1.290475 0.078476 0.962589 0.225396 0.000000 0.000000 0.000000 3.986833 -0.906760 1.734149 5.714227 0.792019 -2.529854 -2.837722 -5.109951 12.172565 0.000000 0.000000 0.000000 4.915658 -0.924026 2.180622 0.909776 -6.628372 17.694054 -1.923496 0.500980 0.679114 -85.856912 -11.445437 -64.167346 10.687923 -81.110757 10.376372 0.000000 0.000000 0.000000 4.990400 -1.143712 1.354049 -0.034373 -4.382830 -21.718680 -2.798451 -1.634829 0.826849 -96.281912 7.625637 66.671594 -1.944563 81.615638 3.678611 0.000000 0.000000 0.000000 
